<svg width="299" height="72" viewBox="0 0 299 72" fill="none" xmlns="http://www.w3.org/2000/svg">
<g clip-path="url(#clip0_54_21121)">
<path d="M53.6126 52.9315C44.8975 52.9315 37.3928 47.747 34.0079 40.2959H23.4739C27.3023 53.3236 39.3466 62.8335 53.6126 62.8335C67.8786 62.8335 79.9251 53.3236 83.7514 40.2959H73.2174C69.8325 47.747 62.3278 52.9315 53.6126 52.9315Z" fill="#FFC220"/>
<path d="M84.6682 27.3837C84.6297 27.1352 84.589 26.8845 84.5483 26.636C81.9474 11.4981 69.0868 0 53.6126 0C44.2119 0 35.7774 4.24402 30.0188 10.971L33.8814 23.326C37.1978 15.4271 44.786 9.902 53.6126 9.902C63.6281 9.902 72.0454 17.0146 74.4427 26.6338H30.9207L27.0966 14.9687L24.9906 8.53517L22.7497 1.70532H0V8.53517H14.7459L20.6781 26.6338L22.2141 31.3256L23.9216 36.5358H84.7582C84.9382 35.1497 85.0324 33.7315 85.0324 32.294C85.0324 30.6251 84.9103 28.984 84.6704 27.3794L84.6682 27.3837Z" fill="#FFC220"/>
<path d="M35.2583 67.5056C36.1433 64.8186 34.6825 61.9229 31.9955 61.0379C29.3085 60.1529 26.4127 61.6137 25.5277 64.3007C24.6427 66.9878 26.1036 69.8835 28.7906 70.7685C31.4776 71.6535 34.3733 70.1926 35.2583 67.5056Z" fill="#FFC220"/>
<path d="M81.9219 67.8419C82.989 65.2219 81.73 62.2329 79.11 61.1658C76.4899 60.0987 73.5009 61.3576 72.4338 63.9777C71.3668 66.5977 72.6257 69.5867 75.2457 70.6538C77.8658 71.7209 80.8548 70.462 81.9219 67.8419Z" fill="#FFC220"/>
</g>
<path d="M101.61 47.18V41.825H117.18V47.18H101.61ZM128.201 56L140.936 24.365H145.931L158.621 56H152.096L142.286 30.035H144.536L134.591 56H128.201ZM134.951 50.105V44.975H151.961V50.105H134.951ZM162.079 56V23.465H167.974V56H162.079ZM173.197 56V23.465H179.092V56H173.197ZM193.734 56V24.365H199.854V56H193.734ZM220.341 56V43.535C220.341 42.245 219.936 41.195 219.126 40.385C218.316 39.575 217.266 39.17 215.976 39.17C215.136 39.17 214.386 39.35 213.726 39.71C213.066 40.07 212.541 40.58 212.151 41.24C211.791 41.9 211.611 42.665 211.611 43.535L209.316 42.365C209.316 40.655 209.676 39.17 210.396 37.91C211.146 36.62 212.166 35.615 213.456 34.895C214.776 34.175 216.261 33.815 217.911 33.815C219.501 33.815 220.926 34.22 222.186 35.03C223.446 35.81 224.436 36.845 225.156 38.135C225.876 39.395 226.236 40.76 226.236 42.23V56H220.341ZM205.716 56V34.265H211.611V56H205.716ZM236.79 56L249.525 24.365H254.52L267.21 56H260.685L250.875 30.035H253.125L243.18 56H236.79ZM243.54 50.105V44.975H260.55V50.105H243.54ZM270.668 56V23.465H276.563V56H270.668ZM281.786 56V23.465H287.681V56H281.786Z" fill="#1D2128"/>
<defs>
<clipPath id="clip0_54_21121">
<rect width="85.0303" height="71.03" fill="white"/>
</clipPath>
</defs>
</svg>
