<svg width="18" height="24" viewBox="0 0 18 24" fill="none" xmlns="http://www.w3.org/2000/svg">
<g clip-path="url(#clip0_64_140)">
<path d="M11.5 12.5V7.5C11.5 6.4 10.6 5.5 9.5 5.5H8.5V12.5" stroke="#1D2128" stroke-width="2" stroke-miterlimit="10" stroke-linecap="round"/>
<path d="M14.5 9.5C14.5 8.4 13.6 7.5 12.5 7.5H11.5" stroke="#1D2128" stroke-width="2" stroke-miterlimit="10" stroke-linecap="round"/>
<path d="M17.5 14.5V11.5C17.5 10.4 16.6 9.5 15.5 9.5H14.5V12.5" stroke="#1D2128" stroke-width="2" stroke-miterlimit="10" stroke-linecap="round"/>
<path d="M17.5 14.5C17.5 18.5 15.5 19.5 15.5 23.5H4.5V22.5C4.5 18.5 0.5 16.5 0.5 14.5V7.5C0.5 6.95 0.95 6.5 1.5 6.5C2.6 6.5 3.5 7.4 3.5 8.5V11.5C3.5 12.05 3.95 12.5 4.5 12.5C5.05 12.5 5.5 12.05 5.5 11.5V2C5.5 1.17 6.17 0.5 7 0.5C7.83 0.5 8.5 1.17 8.5 2V5.5" stroke="#1D2128" stroke-width="2" stroke-linecap="round" stroke-linejoin="round"/>
</g>
<defs>
<clipPath id="clip0_64_140">
<rect width="18" height="24" fill="white"/>
</clipPath>
</defs>
</svg>
