<svg width="136" height="37" viewBox="0 0 136 37" fill="none" xmlns="http://www.w3.org/2000/svg">
<g clip-path="url(#clip0_3_27)">
<path d="M27.5874 27.237C23.1028 27.237 19.2411 24.5692 17.4994 20.735H12.0789C14.0488 27.4387 20.2465 32.3322 27.5874 32.3322C34.9283 32.3322 41.127 27.4387 43.0959 20.735H37.6754C35.9337 24.5692 32.072 27.237 27.5874 27.237Z" fill="#FFC220"/>
<path d="M43.5678 14.0908C43.548 13.963 43.5271 13.834 43.5061 13.7061C42.1678 5.91657 35.5501 0 27.5875 0C22.7502 0 18.41 2.18385 15.4468 5.64538L17.4344 12.0029C19.1409 7.93837 23.0456 5.09528 27.5875 5.09528C32.7412 5.09528 37.0725 8.75524 38.3061 13.705H15.9109L13.9431 7.70245L12.8595 4.39195L11.7064 0.877509H0V4.39195H7.5878L10.6403 13.705L11.4308 16.1193L12.3094 18.8003H43.6142C43.7068 18.087 43.7553 17.3573 43.7553 16.6175C43.7553 15.7588 43.6924 14.9143 43.569 14.0886L43.5678 14.0908Z" fill="#FFC220"/>
<path d="M18.1429 34.7365C18.5983 33.3539 17.8466 31.8638 16.464 31.4084C15.0813 30.953 13.5913 31.7047 13.1359 33.0874C12.6805 34.47 13.4322 35.9601 14.8148 36.4155C16.1975 36.8709 17.6875 36.1192 18.1429 34.7365Z" fill="#FFC220"/>
<path d="M42.1546 34.9095C42.7037 33.5613 42.0559 32.0232 40.7077 31.4741C39.3595 30.925 37.8214 31.5728 37.2723 32.921C36.7232 34.2692 37.371 35.8073 38.7192 36.3564C40.0674 36.9055 41.6055 36.2577 42.1546 34.9095Z" fill="#FFC220"/>
</g>
<path d="M51.16 22.08V19.7H58.08V22.08H51.16ZM62.9781 26L68.6381 11.94H70.8581L76.4981 26H73.5981L69.2381 14.46H70.2381L65.8181 26H62.9781ZM65.9781 23.38V21.1H73.5381V23.38H65.9781ZM78.035 26V11.54H80.655V26H78.035ZM82.9764 26V11.54H85.5964V26H82.9764ZM92.1041 26V11.94H94.8241V26H92.1041ZM103.93 26V20.46C103.93 19.8867 103.75 19.42 103.39 19.06C103.03 18.7 102.563 18.52 101.99 18.52C101.616 18.52 101.283 18.6 100.99 18.76C100.696 18.92 100.463 19.1467 100.29 19.44C100.13 19.7333 100.05 20.0733 100.05 20.46L99.0295 19.94C99.0295 19.18 99.1895 18.52 99.5095 17.96C99.8429 17.3867 100.296 16.94 100.87 16.62C101.456 16.3 102.116 16.14 102.85 16.14C103.556 16.14 104.19 16.32 104.75 16.68C105.31 17.0267 105.75 17.4867 106.07 18.06C106.39 18.62 106.55 19.2267 106.55 19.88V26H103.93ZM97.4295 26V16.34H100.05V26H97.4295ZM111.24 26L116.9 11.94H119.12L124.76 26H121.86L117.5 14.46H118.5L114.08 26H111.24ZM114.24 23.38V21.1H121.8V23.38H114.24ZM126.297 26V11.54H128.917V26H126.297ZM131.238 26V11.54H133.858V26H131.238Z" fill="white"/>
<defs>
<clipPath id="clip0_3_27">
<rect width="43.7542" height="36.55" fill="white"/>
</clipPath>
</defs>
</svg>
