<svg width="50" height="45" viewBox="0 0 50 45" fill="none" xmlns="http://www.w3.org/2000/svg">
<g clip-path="url(#clip0_6_181)">
<path d="M49.4112 7.2068C49.4112 7.2068 49.4112 12.7253 49.4112 12.7292C49.4112 18.2025 41.4544 20.0106 37.2081 18.9662L34.9014 18.3988V40.8497C34.9014 42.3122 33.7176 43.496 32.255 43.496C31.5227 43.496 30.8631 43.1996 30.3821 42.7206C29.9031 42.2396 29.6067 41.58 29.6067 40.8477V9.67844C29.6067 6.13099 31.6837 3.01347 34.8876 1.53324C38.1484 0.0255251 42.0198 0.459386 45.2355 1.89643C47.4264 2.87605 49.4092 4.63505 49.4092 7.20877L49.4112 7.2068Z" stroke="#1D2128" stroke-width="2" stroke-linecap="round" stroke-linejoin="round"/>
<path d="M34.9014 18.3988V15.458" stroke="#1D2128" stroke-width="2" stroke-linecap="round" stroke-linejoin="round"/>
<path d="M44.9019 6.82988V12.5172" stroke="#1D2128" stroke-width="2" stroke-linecap="round" stroke-linejoin="round"/>
<path d="M34.9013 37.8107H29.6086" stroke="#1D2128" stroke-width="2" stroke-linecap="round" stroke-linejoin="round"/>
<path d="M34.0298 7.86054C34.8563 6.1251 36.5898 4.81174 38.7041 4.43874" stroke="#1D2128" stroke-width="2" stroke-linecap="round" stroke-linejoin="round"/>
<path d="M0.588867 7.2068C0.588867 7.2068 0.588867 12.7253 0.588867 12.7292C0.588867 18.2025 8.5456 20.0106 12.7919 18.9662L15.0987 18.3988V40.8497C15.0987 42.3122 16.2825 43.496 17.745 43.496C18.4773 43.496 19.1369 43.1996 19.6179 42.7206C20.0969 42.2396 20.3933 41.58 20.3933 40.8477C20.3933 40.8477 20.3933 9.68825 20.3933 9.67647C20.3933 6.12902 18.3163 3.0115 15.1124 1.53127C11.8496 0.0235568 7.97824 0.457417 4.76257 1.89446C2.57167 2.87408 0.588867 4.63308 0.588867 7.2068Z" stroke="#1D2128" stroke-width="2" stroke-linecap="round" stroke-linejoin="round"/>
<path d="M15.0986 18.3988V15.458" stroke="#1D2128" stroke-width="2" stroke-linecap="round" stroke-linejoin="round"/>
<path d="M5.09839 6.82986V12.5172" stroke="#1D2128" stroke-width="2" stroke-linecap="round" stroke-linejoin="round"/>
<path d="M20.3913 37.8107H15.0986" stroke="#1D2128" stroke-width="2" stroke-linecap="round" stroke-linejoin="round"/>
<path d="M15.9722 7.86053C15.1457 6.12508 13.4122 4.81172 11.2979 4.43872" stroke="#1D2128" stroke-width="2" stroke-linecap="round" stroke-linejoin="round"/>
</g>
<defs>
<clipPath id="clip0_6_181">
<rect width="50" height="44.085" fill="white"/>
</clipPath>
</defs>
</svg>
