<svg width="26" height="30" viewBox="0 0 26 30" fill="none" xmlns="http://www.w3.org/2000/svg">
<path d="M25.1621 21.7619C24.4825 23.2685 24.157 23.9408 23.2821 25.2723C22.0607 27.1317 20.3397 29.4464 18.2074 29.466C16.3121 29.4837 15.8256 28.2326 13.254 28.2466C10.6824 28.2606 10.1452 29.4877 8.24991 29.4703C6.11763 29.4507 4.48655 27.36 3.26549 25.5013C-0.149093 20.3032 -0.506193 14.2029 1.5998 10.9601C3.09676 8.65505 5.45701 7.3062 7.67715 7.3062C9.8973 7.3062 11.3583 8.54589 13.227 8.54589C15.0957 8.54589 16.1447 7.3042 18.7576 7.3042C20.7328 7.3042 22.8254 8.37949 24.3171 10.2395C19.4308 12.917 20.2246 19.8959 25.1617 21.7612L25.1621 21.7619Z" fill="white"/>
<path d="M16.7757 5.22784C17.7246 4.00944 18.4461 2.28817 18.1845 0.529297C16.634 0.636127 14.8192 1.62289 13.7599 2.90918C12.7984 4.07733 12.005 5.80925 12.3138 7.49257C14.0068 7.54482 15.7584 6.53376 16.7754 5.22817L16.7757 5.22784Z" fill="white"/>
</svg>
