<svg width="39" height="50" viewBox="0 0 39 50" fill="none" xmlns="http://www.w3.org/2000/svg">
<g clip-path="url(#clip0_6_235)">
<path d="M36.8651 0.595245H1.74601C1.11044 0.595245 0.595215 1.11047 0.595215 1.74604V48.254C0.595215 48.8895 1.11044 49.4048 1.74601 49.4048H36.8651C37.5006 49.4048 38.0159 48.8895 38.0159 48.254V1.74604C38.0159 1.11047 37.5006 0.595245 36.8651 0.595245Z" stroke="#1D2128" stroke-width="2" stroke-linecap="round" stroke-linejoin="round"/>
<path d="M19.3055 41.879C25.7072 41.879 30.8968 36.6894 30.8968 30.2877C30.8968 23.886 25.7072 18.6964 19.3055 18.6964C12.9038 18.6964 7.71423 23.886 7.71423 30.2877C7.71423 36.6894 12.9038 41.879 19.3055 41.879Z" stroke="#1D2128" stroke-width="2" stroke-linecap="round" stroke-linejoin="round"/>
<path d="M31.6865 46.5099C31.1429 46.0615 30.7957 45.3849 30.7957 44.625C30.7957 43.2778 31.8889 42.1845 33.2361 42.1845C34.5834 42.1845 35.6766 43.2778 35.6766 44.625" stroke="#1D2128" stroke-width="2" stroke-linecap="round" stroke-linejoin="round"/>
<path d="M19.3056 38.625C23.9101 38.625 27.6429 34.8923 27.6429 30.2877C27.6429 25.6831 23.9101 21.9504 19.3056 21.9504C14.701 21.9504 10.9683 25.6831 10.9683 30.2877C10.9683 34.8923 14.701 38.625 19.3056 38.625Z" stroke="#1D2128" stroke-width="2" stroke-linecap="round" stroke-linejoin="round"/>
<path d="M13.4028 29.7897C14.7223 29.4802 16.7104 29.381 19.3096 30.2718C21.4683 31.0119 23.258 31.0675 25.2282 30.5615" stroke="#1D2128" stroke-width="2" stroke-linecap="round" stroke-linejoin="round"/>
<path d="M0.595215 10.9663H38.0158" stroke="#1D2128" stroke-width="2" stroke-linecap="round" stroke-linejoin="round"/>
<path d="M2.8313 6.8492V4.7123H13.8134V6.8492" stroke="#1D2128" stroke-width="2" stroke-linecap="round" stroke-linejoin="round"/>
<path d="M19.3056 8.22221C20.6534 8.22221 21.7461 7.12958 21.7461 5.78174C21.7461 4.4339 20.6534 3.34126 19.3056 3.34126C17.9578 3.34126 16.8651 4.4339 16.8651 5.78174C16.8651 7.12958 17.9578 8.22221 19.3056 8.22221Z" stroke="#1D2128" stroke-width="2" stroke-linecap="round" stroke-linejoin="round"/>
<path d="M31.0516 8.22223H33.0854" stroke="#1D2128" stroke-width="2" stroke-linecap="round" stroke-linejoin="round"/>
</g>
<defs>
<clipPath id="clip0_6_235">
<rect width="38.6111" height="50" fill="white"/>
</clipPath>
</defs>
</svg>
