<svg width="14" height="13" viewBox="0 0 14 13" fill="none" xmlns="http://www.w3.org/2000/svg">
<g clip-path="url(#clip0_3_49)">
<path d="M13.2827 1.97827H5.36963" stroke="#1D2128" stroke-linecap="round" stroke-linejoin="round"/>
<path d="M2.54358 1.97827H0.282715" stroke="#1D2128" stroke-linecap="round" stroke-linejoin="round"/>
<path d="M13.2826 6.5H11.5869" stroke="#1D2128" stroke-linecap="round" stroke-linejoin="round"/>
<path d="M8.76098 6.5H0.282715" stroke="#1D2128" stroke-linecap="round" stroke-linejoin="round"/>
<path d="M13.2825 11.0217H3.67383" stroke="#1D2128" stroke-linecap="round" stroke-linejoin="round"/>
<path d="M0.847932 11.0217H0.282715" stroke="#1D2128" stroke-linecap="round" stroke-linejoin="round"/>
<path d="M3.39128 3.67393C2.92215 3.67393 2.54346 3.29523 2.54346 2.8261V1.13045C2.54346 0.661319 2.92215 0.282623 3.39128 0.282623C3.86041 0.282623 4.23911 0.661319 4.23911 1.13045V2.8261C4.23911 3.29523 3.86041 3.67393 3.39128 3.67393Z" stroke="#1D2128" stroke-linecap="round" stroke-linejoin="round"/>
<path d="M9.60881 8.19566C9.13968 8.19566 8.76099 7.81696 8.76099 7.34783V5.65218C8.76099 5.18305 9.13968 4.80435 9.60881 4.80435C10.0779 4.80435 10.4566 5.18305 10.4566 5.65218V7.34783C10.4566 7.81696 10.0779 8.19566 9.60881 8.19566Z" stroke="#1D2128" stroke-linecap="round" stroke-linejoin="round"/>
<path d="M1.69573 12.7174C1.2266 12.7174 0.8479 12.3387 0.8479 11.8696V10.1739C0.8479 9.70478 1.2266 9.32608 1.69573 9.32608C2.16486 9.32608 2.54355 9.70478 2.54355 10.1739V11.8696C2.54355 12.3387 2.16486 12.7174 1.69573 12.7174Z" stroke="#1D2128" stroke-linecap="round" stroke-linejoin="round"/>
</g>
<defs>
<clipPath id="clip0_3_49">
<rect width="13.5652" height="13" fill="white"/>
</clipPath>
</defs>
</svg>
