<svg width="24" height="24" viewBox="0 0 24 24" fill="none" xmlns="http://www.w3.org/2000/svg">
<path d="M0.660007 1.67024C0.460007 2.02024 0.480007 2.50024 0.570007 3.00024C1.47001 8.05024 3.91001 12.5702 7.34001 16.0102C10.77 19.4502 15.42 22.0102 20.31 22.7502C20.81 22.8302 21.29 22.8602 21.64 22.6602C21.76 22.5902 21.92 22.4602 21.96 22.2602L22.76 18.6602C22.82 18.3502 22.71 18.0302 22.46 17.7702C22.34 17.6502 19.61 16.6602 18.32 16.0402C17.79 15.7802 17.17 15.9302 16.91 16.3602L16.41 17.2202C16.24 17.5102 15.95 17.7302 15.63 17.8102C14.37 18.1302 10.47 14.5402 9.62001 13.6902C8.74001 12.8102 5.03001 8.81024 5.35001 7.55024C5.43001 7.22024 5.65001 6.94024 5.94001 6.77024C6.69001 6.33024 6.49001 6.45024 6.79001 6.27024C7.23001 6.01024 7.38001 5.39024 7.12001 4.86024C6.56001 3.71024 6.23001 2.63024 5.86001 1.40024C5.70001 0.860239 5.18001 0.430239 4.66001 0.540239C4.66001 0.540239 4.60001 0.550239 1.04001 1.35024C0.850007 1.39024 0.720007 1.54024 0.650007 1.67024H0.660007Z" stroke="#1D2128" stroke-width="2" stroke-miterlimit="10"/>
<path d="M11.6301 3.50977C15.5601 3.50977 18.7401 6.68977 18.7401 10.6198" stroke="#1D2128" stroke-width="2" stroke-linecap="round" stroke-linejoin="round"/>
<path d="M11.6301 0.5C17.2201 0.5 21.7501 5.03 21.7501 10.62" stroke="#1D2128" stroke-width="2" stroke-linecap="round" stroke-linejoin="round"/>
</svg>
