<svg width="50" height="35" viewBox="0 0 50 35" fill="none" xmlns="http://www.w3.org/2000/svg">
<g clip-path="url(#clip0_6_156)">
<path d="M49.407 28.4348V28.5296C49.407 31.4348 47.0612 33.7964 44.1442 33.7964C41.8299 33.7964 39.7865 32.2846 39.1106 30.0711L37.8458 25.9308C37.3853 24.4249 35.996 23.3972 34.4209 23.3972H15.577C14.0039 23.3972 12.6126 24.4249 12.1521 25.9308L10.8873 30.0711C10.2114 32.2826 8.1679 33.7964 5.85367 33.7964C2.93667 33.7964 0.59082 31.4328 0.59082 28.5296V28.4348C0.610583 27.3004 0.652085 26.0198 0.723231 24.581C1.43469 10.164 5.92481 5.20158 5.92481 5.20158L5.79042 2.92885C5.73311 1.95454 6.45446 1.10869 7.42481 1.00988L11.5118 0.602764C12.2726 0.525689 12.9979 0.932803 13.3319 1.62055L13.9189 2.83794H36.0869L36.6738 1.62055C37.0078 0.932803 37.7331 0.523712 38.494 0.602764L42.5809 1.00988C43.5513 1.10869 44.2726 1.95454 44.2173 2.92885L44.0829 5.20158C44.0829 5.20158 48.573 10.164 49.2825 24.581C49.3537 26.0198 49.3952 27.3004 49.4149 28.4348H49.407Z" stroke="#1D2128" stroke-width="2" stroke-linecap="round" stroke-linejoin="round"/>
<path d="M20.3064 16.0573V14.3162" stroke="#1D2128" stroke-width="2" stroke-linecap="round" stroke-linejoin="round"/>
<path d="M23.5929 17.6028H21.8281" stroke="#1D2128" stroke-width="2" stroke-linecap="round" stroke-linejoin="round"/>
<path d="M20.3064 20.8874V19.164" stroke="#1D2128" stroke-width="2" stroke-linecap="round" stroke-linejoin="round"/>
<path d="M18.7213 17.6028H17.0217" stroke="#1D2128" stroke-width="2" stroke-linecap="round" stroke-linejoin="round"/>
<path d="M30.4764 20.1067C31.8593 20.1067 32.9803 18.9857 32.9803 17.6028C32.9803 16.2199 31.8593 15.0988 30.4764 15.0988C29.0935 15.0988 27.9724 16.2199 27.9724 17.6028C27.9724 18.9857 29.0935 20.1067 30.4764 20.1067Z" stroke="#1D2128" stroke-width="2" stroke-linecap="round" stroke-linejoin="round"/>
<path d="M11.3892 14.7095C12.7721 14.7095 13.8932 13.5884 13.8932 12.2055C13.8932 10.8226 12.7721 9.70158 11.3892 9.70158C10.0063 9.70158 8.88525 10.8226 8.88525 12.2055C8.88525 13.5884 10.0063 14.7095 11.3892 14.7095Z" stroke="#1D2128" stroke-width="2" stroke-linecap="round" stroke-linejoin="round"/>
<path d="M20.4624 7.19763H22.6541" stroke="#1D2128" stroke-width="2" stroke-linecap="round" stroke-linejoin="round"/>
<path d="M27.3477 7.19763H29.5374" stroke="#1D2128" stroke-width="2" stroke-linecap="round" stroke-linejoin="round"/>
<path d="M39.7253 10.7016L40.6463 9.78064L41.5672 10.7016" stroke="#1D2128" stroke-width="2" stroke-linecap="round" stroke-linejoin="round"/>
<path d="M41.5672 16.0553L40.6463 16.9763L39.7253 16.0553" stroke="#1D2128" stroke-width="2" stroke-linecap="round" stroke-linejoin="round"/>
<path d="M43.324 12.4585L44.2449 13.3795L43.324 14.3004" stroke="#1D2128" stroke-width="2" stroke-linecap="round" stroke-linejoin="round"/>
<path d="M37.9683 14.3004L37.0474 13.3795L37.9683 12.4585" stroke="#1D2128" stroke-width="2" stroke-linecap="round" stroke-linejoin="round"/>
</g>
<defs>
<clipPath id="clip0_6_156">
<rect width="50" height="34.3893" fill="white"/>
</clipPath>
</defs>
</svg>
