<svg width="24" height="24" viewBox="0 0 24 24" fill="none" xmlns="http://www.w3.org/2000/svg">
<g clip-path="url(#clip0_64_126)">
<path d="M21.8109 5.35316C22.92 4.24407 22.92 2.44589 21.8109 1.3368C20.7018 0.227708 18.9036 0.227708 17.7946 1.3368L13.3256 5.80571C12.2165 6.9148 12.2165 8.71299 13.3256 9.82208C14.4347 10.9312 16.2329 10.9312 17.342 9.82208L21.8109 5.35316Z" stroke="#1D2128" stroke-width="2" stroke-linecap="round" stroke-linejoin="round"/>
<path d="M9.81018 17.3532C10.9193 16.2441 10.9193 14.4459 9.81019 13.3368C8.7011 12.2277 6.90291 12.2277 5.79382 13.3368L1.3249 17.8057C0.215815 18.9148 0.215815 20.713 1.3249 21.8221C2.43399 22.9312 4.23218 22.9312 5.34127 21.8221L9.81018 17.3532Z" stroke="#1D2128" stroke-width="2" stroke-linecap="round" stroke-linejoin="round"/>
<path d="M11.3201 1.81982V3.81982" stroke="#1D2128" stroke-width="2" stroke-linecap="round" stroke-linejoin="round"/>
<path d="M5.32007 4.81982L7.32007 6.81982" stroke="#1D2128" stroke-width="2" stroke-linecap="round" stroke-linejoin="round"/>
<path d="M2.32007 11.8198H4.32007" stroke="#1D2128" stroke-width="2" stroke-linecap="round" stroke-linejoin="round"/>
<path d="M16.3201 15.8198L18.3201 17.8198" stroke="#1D2128" stroke-width="2" stroke-linecap="round" stroke-linejoin="round"/>
<path d="M21.3201 11.8198H19.3201" stroke="#1D2128" stroke-width="2" stroke-linecap="round" stroke-linejoin="round"/>
<path d="M12.3201 18.8198V20.8198" stroke="#1D2128" stroke-width="2" stroke-linecap="round" stroke-linejoin="round"/>
</g>
<defs>
<clipPath id="clip0_64_126">
<rect width="23.15" height="23.15" fill="white"/>
</clipPath>
</defs>
</svg>
