<svg width="24" height="24" viewBox="0 0 24 24" fill="none" xmlns="http://www.w3.org/2000/svg">
<g clip-path="url(#clip0_3_42)">
<path d="M0.660007 1.67C0.460007 2.02 0.480007 2.49999 0.570007 2.99999C1.47001 8.05 3.91001 12.57 7.34001 16.01C10.77 19.45 15.42 22.01 20.31 22.75C20.81 22.83 21.29 22.86 21.64 22.66C21.76 22.59 21.92 22.46 21.96 22.26L22.76 18.66C22.82 18.35 22.71 18.03 22.46 17.77C22.34 17.65 19.61 16.66 18.32 16.04C17.79 15.78 17.17 15.93 16.91 16.36L16.41 17.22C16.24 17.51 15.95 17.73 15.63 17.81C14.37 18.13 10.47 14.54 9.62001 13.69C8.74001 12.81 5.03001 8.81 5.35001 7.55C5.43001 7.22 5.65001 6.94 5.94001 6.77C6.69001 6.33 6.49001 6.45 6.79001 6.27C7.23001 6.01 7.38001 5.39 7.12001 4.86C6.56001 3.71 6.23001 2.63 5.86001 1.4C5.70001 0.859995 5.18001 0.429995 4.66001 0.539995C4.66001 0.539995 4.60001 0.549995 1.04001 1.35C0.850007 1.39 0.720007 1.54 0.650007 1.67H0.660007Z" stroke="white" stroke-width="1.5" stroke-miterlimit="10"/>
<path d="M11.63 3.51001C15.56 3.51001 18.74 6.69001 18.74 10.62" stroke="white" stroke-width="1.5" stroke-linecap="round" stroke-linejoin="round"/>
<path d="M11.63 0.5C17.22 0.5 21.75 5.03 21.75 10.62" stroke="white" stroke-width="1.5" stroke-linecap="round" stroke-linejoin="round"/>
</g>
<defs>
<clipPath id="clip0_3_42">
<rect width="23.29" height="23.31" fill="white"/>
</clipPath>
</defs>
</svg>
