<svg width="30" height="50" viewBox="0 0 30 50" fill="none" xmlns="http://www.w3.org/2000/svg">
<g clip-path="url(#clip0_6_143)">
<path d="M29.018 7.25995V40.9757C29.018 43.6828 22.6552 45.8758 14.8058 45.8758C6.95635 45.8758 0.595459 43.6828 0.595459 40.9757V7.25995" stroke="#1D2128" stroke-width="2" stroke-linecap="round" stroke-linejoin="round"/>
<path d="M27.4402 4.74338C28.4484 5.49756 29.018 6.35295 29.018 7.25995C29.018 10.2906 22.6552 12.7496 14.8058 12.7496C6.95635 12.7496 0.595459 10.2906 0.595459 7.25995C0.595459 6.35295 1.16506 5.49756 2.17328 4.74338" stroke="#1D2128" stroke-width="2" stroke-linecap="round" stroke-linejoin="round"/>
<path d="M14.8077 9.22081C21.791 9.22081 27.4521 7.28995 27.4521 4.9081C27.4521 2.52626 21.791 0.595398 14.8077 0.595398C7.82441 0.595398 2.16333 2.52626 2.16333 4.9081C2.16333 7.28995 7.82441 9.22081 14.8077 9.22081Z" stroke="#1D2128" stroke-width="2" stroke-linecap="round" stroke-linejoin="round"/>
<path d="M21.5694 4.94582C19.8666 5.5432 17.485 5.91434 14.8493 5.91434C12.2137 5.91434 10.0524 5.57694 8.37134 5.02719" stroke="#1D2128" stroke-width="2" stroke-linecap="round" stroke-linejoin="round"/>
<path d="M2.16333 44.8974V43.2164" stroke="#1D2128" stroke-width="2" stroke-linecap="round" stroke-linejoin="round"/>
<path d="M27.4502 44.8974V43.2164" stroke="#1D2128" stroke-width="2" stroke-linecap="round" stroke-linejoin="round"/>
<path d="M2.16333 44.8974C2.16333 47.3862 7.82363 49.4066 14.8077 49.4066C21.7918 49.4066 27.4521 47.3882 27.4521 44.8974" stroke="#1D2128" stroke-width="2" stroke-linecap="round" stroke-linejoin="round"/>
<path d="M11.5727 36.8594C12.6556 36.8594 13.5335 35.9815 13.5335 34.8986C13.5335 33.8156 12.6556 32.9377 11.5727 32.9377C10.4897 32.9377 9.61182 33.8156 9.61182 34.8986C9.61182 35.9815 10.4897 36.8594 11.5727 36.8594Z" stroke="#1D2128" stroke-width="2" stroke-linecap="round" stroke-linejoin="round"/>
<path d="M18.2372 35.0951C19.3202 35.0951 20.1981 34.2172 20.1981 33.1342C20.1981 32.0512 19.3202 31.1733 18.2372 31.1733C17.1543 31.1733 16.2764 32.0512 16.2764 33.1342C16.2764 34.2172 17.1543 35.0951 18.2372 35.0951Z" stroke="#1D2128" stroke-width="2" stroke-linecap="round" stroke-linejoin="round"/>
<path d="M13.5334 34.8986V27.2873C14.1805 27.3925 14.8731 27.4501 15.5916 27.4501C17.3877 27.4501 19.0131 27.0948 20.198 26.5213V33.1342" stroke="#1D2128" stroke-width="2" stroke-linecap="round" stroke-linejoin="round"/>
</g>
<defs>
<clipPath id="clip0_6_143">
<rect width="29.6134" height="50" fill="white"/>
</clipPath>
</defs>
</svg>
