<svg width="22" height="24" viewBox="0 0 22 24" fill="none" xmlns="http://www.w3.org/2000/svg">
<g clip-path="url(#clip0_3_104)">
<path d="M7.86006 22.81L0.790059 15.74C0.400059 15.35 0.400059 14.72 0.790059 14.33L12.1101 3.01001L19.0601 3.64001C19.5401 3.68001 19.9201 4.06001 19.9701 4.55001L20.6001 11.5L9.29006 22.81C8.90006 23.2 8.27006 23.2 7.88006 22.81H7.86006Z" stroke="#1D2128" stroke-width="1.5" stroke-linecap="round" stroke-linejoin="round"/>
<path d="M12.11 8.67001L5.73999 15.04" stroke="#1D2128" stroke-width="1.5" stroke-linecap="round" stroke-linejoin="round"/>
<path d="M14.9299 11.5L8.56995 17.86" stroke="#1D2128" stroke-width="1.5" stroke-linecap="round" stroke-linejoin="round"/>
<path d="M17.36 6.5C16.12 6.5 15.11 5.16 15.11 3.5C15.11 1.84 16.12 0.5 17.36 0.5C18.6 0.5 19.61 1.84 19.61 3.5" stroke="#1D2128" stroke-width="1.5" stroke-linecap="round" stroke-linejoin="round"/>
</g>
<defs>
<clipPath id="clip0_3_104">
<rect width="21.09" height="23.61" fill="white"/>
</clipPath>
</defs>
</svg>
