<svg width="23" height="24" viewBox="0 0 23 24" fill="none" xmlns="http://www.w3.org/2000/svg">
<g clip-path="url(#clip0_3_39)">
<path d="M15.45 6.10001C15.45 8.43001 13.46 10.29 11.09 10.08C8.98995 9.90001 7.44995 8.00001 7.44995 5.89001V4.70001C7.44995 2.59001 8.98995 0.690014 11.09 0.510014C13.46 0.300014 15.45 2.17001 15.45 4.49001V6.09001V6.10001Z" stroke="white" stroke-width="1.5" stroke-linecap="round" stroke-linejoin="round"/>
<path d="M13.55 13.79L12.21 15.39C11.81 15.87 11.08 15.87 10.68 15.39L9.34002 13.79C8.78002 13.12 7.85002 12.87 7.05002 13.22C3.48002 14.77 0.900019 18.16 0.500019 22.19C0.440019 22.78 0.900019 23.3 1.50002 23.3H21.39C21.99 23.3 22.45 22.78 22.39 22.19C21.98 18.16 19.4 14.77 15.84 13.22C15.04 12.87 14.11 13.13 13.55 13.79Z" stroke="white" stroke-width="1.5" stroke-linecap="round" stroke-linejoin="round"/>
</g>
<defs>
<clipPath id="clip0_3_39">
<rect width="22.9" height="23.8" fill="white"/>
</clipPath>
</defs>
</svg>
